<svg version="1.1" viewBox="0.0 0.0 188.9763779527559 188.9763779527559" fill="none" stroke="none" stroke-linecap="square" stroke-miterlimit="10" xmlns:xlink="http://www.w3.org/1999/xlink" xmlns="http://www.w3.org/2000/svg"><clipPath id="p.0"><path d="m0 0l188.97638 0l0 188.97638l-188.97638 0l0 -188.97638z" clip-rule="nonzero"/></clipPath><g clip-path="url(#p.0)"><path fill="#000000" fill-opacity="0.0" d="m0 0l188.97638 0l0 188.97638l-188.97638 0z" fill-rule="evenodd"/><path fill="#666666" d="m0 94.48819l0 0c0 -52.184387 42.303802 -94.48819 94.48819 -94.48819l0 0c25.059822 0 49.09326 9.954977 66.81323 27.67495c17.719986 17.719975 27.674957 41.75341 27.674957 66.81324l0 0c0 52.184387 -42.303802 94.48819 -94.48819 94.48819l0 0c-52.184387 0 -94.48819 -42.303802 -94.48819 -94.48819z" fill-rule="evenodd"/><path fill="#d0e0e3" d="m5.3543305 94.48819l0 0c0 -49.227272 39.906586 -89.13386 89.13386 -89.13386l0 0c23.63977 0 46.31131 9.3908615 63.02716 26.106703c16.715836 16.715843 26.10669 39.387386 26.10669 63.027157l0 0c0 49.227264 -39.906586 89.13385 -89.13385 89.13385l0 0c-49.227272 0 -89.13386 -39.906586 -89.13386 -89.13385z" fill-rule="evenodd"/><path fill="#ffffff" d="m53.743332 141.68214l0 0c-0.43891907 -11.379227 7.435089 -22.051605 20.605995 -27.92923c13.170906 -5.8776245 29.597404 -6.0495453 42.98755 -0.44992065c13.39016 5.5996323 21.668663 16.102951 21.664589 27.486801l-42.63775 -0.008377075z" fill-rule="evenodd"/><path fill="#666666" d="m35.70991 151.67632l0 0c0 -31.091385 26.294865 -56.30105 58.743687 -56.319313c32.44883 -0.01826477 58.774582 25.161781 58.812714 56.253136l-15.943985 0.017959595l0 0c-0.028244019 -22.289246 -19.213081 -40.34041 -42.85977 -40.327103c-23.646698 0.013313293 -42.808647 18.08606 -42.808647 40.37532z" fill-rule="evenodd"/><path fill="#666666" d="m47.27066 139.32059l98.18788 0l0 12.314926l-98.18788 0z" fill-rule="evenodd"/><path fill="#666666" d="m54.015915 65.39425l0 0c0 -22.352295 18.120117 -40.472412 40.472412 -40.472412l0 0c10.733948 0 21.02826 4.2640457 28.618309 11.854094c7.5900497 7.5900497 11.854103 17.884365 11.854103 28.618317l0 0c0 22.352295 -18.120117 40.472412 -40.472412 40.472412l0 0c-22.352295 0 -40.472412 -18.120117 -40.472412 -40.472412z" fill-rule="evenodd"/><path fill="#ffffff" d="m65.2674 65.39188l0 0c0 16.140205 13.084221 29.224426 29.224419 29.224426l0 0c7.750801 0 15.184143 -3.0789948 20.664787 -8.559639c5.480644 -5.4806366 8.559639 -12.913986 8.559639 -20.664787l0 0c0 -16.140202 -13.084221 -29.224419 -29.224426 -29.224419l0 0c-16.140198 0 -29.224419 13.084217 -29.224419 29.224419z" fill-rule="evenodd"/></g></svg>